<?xml version="1.0" encoding="UTF-8" standalone="no"?>
<svg
   width="216mm"
   height="124.40000152587888mm"
   viewBox="-108 -62.20000076293944 216 124.40000152587888"
   version="1.1"
   id="svg8"
   sodipodi:docname="TopPlate.svg"
   inkscape:version="1.1 (c68e22c387, 2021-05-23)"
   xmlns:inkscape="http://www.inkscape.org/namespaces/inkscape"
   xmlns:sodipodi="http://sodipodi.sourceforge.net/DTD/sodipodi-0.dtd"
   xmlns="http://www.w3.org/2000/svg"
   xmlns:svg="http://www.w3.org/2000/svg"
   xmlns:rdf="http://www.w3.org/1999/02/22-rdf-syntax-ns#"
   xmlns:cc="http://creativecommons.org/ns#"
   xmlns:dc="http://purl.org/dc/elements/1.1/">
  <defs
     id="defs12" />
  <sodipodi:namedview
     id="namedview10"
     pagecolor="#ffffff"
     bordercolor="#666666"
     borderopacity="1.0"
     inkscape:pageshadow="2"
     inkscape:pageopacity="0.0"
     inkscape:pagecheckerboard="0"
     inkscape:document-units="mm"
     showgrid="false"
     inkscape:zoom="1.9089973"
     inkscape:cx="152.69796"
     inkscape:cy="365.37505"
     inkscape:window-width="1920"
     inkscape:window-height="1009"
     inkscape:window-x="3832"
     inkscape:window-y="-8"
     inkscape:window-maximized="1"
     inkscape:current-layer="svg8" />
  <title
     id="title2">svgOutput</title>
  <desc
     id="desc4">made with tinkercad</desc>
  <path
     d="M 106.50499725341797 -58.36899948120116 L 106.8641357421875 -57.34400177001952 L 106.875 -57.31299972534178 L 107 -56.20000076293944 L 107 -49.15200042724608 L 107 -32.76800155639648 L 107 1.1102230246251565e-16 L 107 32.76800155639648 L 107 49.15200042724608 L 107 56.20000076293944 L 106.875 57.31299972534178 L 106.8641357421875 57.34400177001952 L 106.50499725341797 58.36899948120116 L 105.90899658203125 59.31700134277342 L 105.11699676513672 60.109001159667955 L 104.16899871826172 60.70500183105467 L 103.11299896240234 61.07500076293944 L 102 61.20000076293944 L 98.30400085449219 61.20000076293944 L 65.53600311279297 61.20000076293944 L 32.768001556396484 61.20000076293944 L 16.384000778198242 61.20000076293944 L 8.192000389099121 61.20000076293944 L 0 61.20000076293944 L -8.74532699584961 61.20000076293944 L -11.648921966552734 61.20000076293944 L -14.800999641418457 61.20000076293944 L -16.384000778198242 61.20000076293944 L -32.768001556396484 61.20000076293944 L -65.53600311279297 61.20000076293944 L -95.40663146972656 61.20000076293944 L -97.79337310791016 61.20000076293944 L -98.30400085449219 61.20000076293944 L -102 61.20000076293944 L -103.11299896240234 61.07500076293944 L -104.16899871826172 60.70500183105467 L -105.11699676513672 60.109001159667955 L -105.90899658203125 59.31700134277342 L -106.50499725341797 58.36899948120116 L -106.8641357421875 57.34400177001952 L -106.875 57.31299972534178 L -107 56.20000076293944 L -107 52.40663146972655 L -107 49.97412872314452 L -107 49.15200042724608 L -107 32.76800155639648 L -107 1.1102230246251565e-16 L -107 -32.76800155639648 L -107 -49.15200042724608 L -107 -53.59336853027342 L -107 -56.025871276855455 L -107 -56.20000076293944 L -106.875 -57.31299972534178 L -106.8641357421875 -57.34400177001952 L -106.50499725341797 -58.36899948120116 L -105.90899658203125 -59.31700134277342 L -105.11699676513672 -60.109001159667955 L -104.16899871826172 -60.70500183105467 L -103.11299896240234 -61.07500076293944 L -102 -61.20000076293944 L -98.30400085449219 -61.20000076293944 L -97.58121490478516 -61.20000076293944 L -81.91999816894531 -61.20000076293944 L -65.53600311279297 -61.20000076293944 L -61.95000076293945 -61.20000076293944 L -49.152000427246094 -61.20000076293944 L -32.768001556396484 -61.20000076293944 L -28.950000762939453 -61.20000076293944 L 0 -61.20000076293944 L 8.192000389099121 -61.20000076293944 L 16.384000778198242 -61.20000076293944 L 18.458999633789062 -61.20000076293944 L 22.20209503173828 -61.20000076293944 L 25.808839797973633 -61.20000076293944 L 29.502717971801758 -61.20000076293944 L 32.768001556396484 -61.20000076293944 L 49.152000427246094 -61.20000076293944 L 58.40970230102539 -61.20000076293944 L 62.36359405517578 -61.20000076293944 L 65.53600311279297 -61.20000076293944 L 81.91999816894531 -61.20000076293944 L 86.05008697509766 -61.20000076293944 L 90.58731079101562 -61.20000076293944 L 93.43296813964844 -61.20000076293944 L 95.61878204345703 -61.20000076293944 L 97.58121490478516 -61.20000076293944 L 98.30400085449219 -61.20000076293944 L 102 -61.20000076293944 L 103.11299896240234 -61.07500076293944 L 104.16899871826172 -60.70500183105467 L 105.11699676513672 -60.109001159667955 L 105.90899658203125 -59.31700134277342 L 106.50499725341797 -58.36899948120116 M 99.21199798583984 -54.499999999999986 L 98.98999786376953 -54.79000091552733 L 98.69999694824219 -55.01200103759764 L 98.36199951171875 -55.15200042724608 L 98.30400085449219 -55.15969085693358 L 98 -55.20000076293944 L 97.63800048828125 -55.15200042724608 L 97.30000305175781 -55.01200103759764 L 97.01000213623047 -54.79000091552733 L 96.78800201416016 -54.499999999999986 L 96.64800262451172 -54.16199874877928 L 96.5999984741211 -53.79999923706053 L 96.64800262451172 -53.43799972534178 L 96.78800201416016 -53.09999847412108 L 97.01000213623047 -52.810001373291 L 97.30000305175781 -52.58800125122069 L 97.63800048828125 -52.44800186157225 L 98 -52.40000152587889 L 98.30400085449219 -52.440307617187486 L 98.36199951171875 -52.44800186157225 L 98.69999694824219 -52.58800125122069 L 98.98999786376953 -52.810001373291 L 99.21199798583984 -53.09999847412108 L 99.35199737548828 -53.43799972534178 L 99.4000015258789 -53.79999923706053 L 99.35199737548828 -54.16199874877928 L 99.21199798583984 -54.499999999999986 M 99.74199676513672 -40.9000015258789 L 98.98500061035156 -42.67699813842773 L 98.30400085449219 -43.75392913818359 L 97.9530029296875 -44.30899810791015 L 96.6729965209961 -45.75400161743163 L 95.177001953125 -46.976001739501946 L 93.50399780273438 -47.94100189208984 L 91.6989974975586 -48.62599945068358 L 89.80599975585938 -49.013000488281236 L 87.87699890136719 -49.090000152587876 L 85.95999908447266 -48.8569984436035 L 84.1050033569336 -48.319999694824205 L 82.36000061035156 -47.49200057983398 L 81.91999816894531 -47.18823623657226 L 80.77100372314453 -46.395000457763665 L 79.37799835205078 -45.05699920654296 L 78.21800231933594 -43.51399993896484 L 77.31999969482422 -41.80400085449218 L 77.04083251953125 -40.96695709228515 L 77.03851318359375 -40.95999908447265 L 76.70899963378906 -39.972000122070305 L 76.39900207519531 -38.06600189208984 L 76.39900207519531 -36.1339988708496 L 76.70899963378906 -34.22800064086913 L 77.19593048095703 -32.76800155639648 L 77.31999969482422 -32.39599990844726 L 78.21800231933594 -30.686000823974602 L 79.37799835205078 -29.142999649047844 L 80.77100372314453 -27.805000305175774 L 81.91999816894531 -27.011762619018548 L 82.36000061035156 -26.70800018310546 L 84.1050033569336 -25.879999160766594 L 85.95999908447266 -25.343000411987298 L 87.87699890136719 -25.110000610351555 L 89.80599975585938 -25.187000274658196 L 91.6989974975586 -25.57399940490722 L 93.50399780273438 -26.259000778198235 L 95.177001953125 -27.224000930786126 L 96.6729965209961 -28.445999145507805 L 97.9530029296875 -29.891000747680657 L 98.30400085449219 -30.44606971740722 L 98.98500061035156 -31.52300071716308 L 99.51536560058594 -32.76800155639648 L 99.74199676513672 -33.29999923706054 L 100.20500183105469 -35.17499923706054 L 100.36000061035156 -37.09999847412109 L 100.20500183105469 -39.0250015258789 L 99.74199676513672 -40.9000015258789 M 70.77200317382812 -41.13999938964843 L 70.01499938964844 -42.916999816894524 L 68.98300170898438 -44.548999786376946 L 67.7030029296875 -45.993999481201165 L 66.20700073242188 -47.21599960327148 L 65.53600311279297 -47.60303878784179 L 64.53399658203125 -48.18099975585936 L 62.729000091552734 -48.866001129150376 L 60.83599853515625 -49.25299835205077 L 58.90700149536133 -49.33000183105467 L 56.9900016784668 -49.0970001220703 L 55.1349983215332 -48.560001373291 L 53.38999938964844 -47.73199844360351 L 51.80099868774414 -46.634998321533196 L 50.40800094604492 -45.29700088500976 L 49.24800109863281 -43.75400161743163 L 49.152000427246094 -43.57119369506835 L 48.8599967956543 -43.015151977539055 L 48.349998474121094 -42.04399871826171 L 47.988468170166016 -40.95999908447265 L 47.73899841308594 -40.2120018005371 L 47.42900085449219 -38.30599975585937 L 47.42900085449219 -36.3740005493164 L 47.73899841308594 -34.467998504638665 L 48.30597686767578 -32.76800155639648 L 48.349998474121094 -32.636001586914055 L 49.152000427246094 -31.108806610107415 L 49.24800109863281 -30.926000595092766 L 50.40800094604492 -29.38299942016601 L 51.80099868774414 -28.045000076293938 L 53.38999938964844 -26.947999954223626 L 55.1349983215332 -26.12000083923339 L 56.9900016784668 -25.58300018310546 L 58.90700149536133 -25.35000038146972 L 60.83599853515625 -25.42700004577636 L 62.729000091552734 -25.813999176025384 L 64.53399658203125 -26.4990005493164 L 65.53600311279297 -27.076961517333977 L 66.20700073242188 -27.46400070190429 L 67.7030029296875 -28.686000823974602 L 68.98300170898438 -30.13100051879882 L 70.01499938964844 -31.763000488281243 L 70.44313049316406 -32.76800155639648 L 70.77200317382812 -33.54000091552734 L 71.23500061035156 -35.41500091552734 L 71.38999938964844 -37.34000015258788 L 71.23500061035156 -39.26499938964843 L 70.81644439697266 -40.95999908447265 L 70.77200317382812 -41.13999938964843 M 94.302001953125 -9.560000419616697 L 93.54499816894531 -11.336999893188475 L 92.51300048828125 -12.968999862670895 L 91.23300170898438 -14.413999557495114 L 89.73699951171875 -15.635999679565426 L 88.4402084350586 -16.38400077819824 L 88.06400299072266 -16.600999832153317 L 86.25900268554688 -17.2859992980957 L 84.36599731445312 -17.673000335693356 L 82.43699645996094 -17.749999999999996 L 81.91999816894531 -17.68716239929199 L 80.5199966430664 -17.517000198364254 L 78.66500091552734 -16.979999542236325 L 77.408935546875 -16.38400077819824 L 76.91999816894531 -16.15200042724609 L 75.33100128173828 -15.055000305175778 L 73.93800354003906 -13.717000007629391 L 72.77799987792969 -12.17399978637695 L 71.87999725341797 -10.463999748229979 L 71.26899719238281 -8.63199996948242 L 70.95899963378906 -6.7259998321533185 L 70.95899963378906 -4.7940001487731925 L 71.26899719238281 -2.8880000114440914 L 71.87999725341797 -1.0559999942779537 L 72.43455505371094 1.1102230246251565e-16 L 72.77799987792969 0.6539999842643738 L 73.93800354003906 2.1970000267028804 L 75.33100128173828 3.5350000858306876 L 76.91999816894531 4.631999969482421 L 78.66500091552734 5.460000038146972 L 80.5199966430664 5.997000217437743 L 82.43699645996094 6.2300000190734846 L 84.36599731445312 6.152999877929686 L 86.25900268554688 5.765999794006347 L 88.06400299072266 5.080999851226806 L 89.73699951171875 4.116000175476073 L 91.23300170898438 2.8940000534057613 L 92.51300048828125 1.4490000009536743 L 93.42928314208984 1.1102230246251565e-16 L 93.54499816894531 -0.1829999983310698 L 94.302001953125 -1.9600000381469722 L 94.76499938964844 -3.8350000381469718 L 94.91999816894531 -5.760000228881835 L 94.76499938964844 -7.684999942779539 L 94.302001953125 -9.560000419616697 M 65.53600311279297 -7.76194381713867 L 65.09200286865234 -9.560000419616697 L 64.33499908447266 -11.336999893188475 L 63.303001403808594 -12.968999862670895 L 62.02299880981445 -14.413999557495114 L 60.527000427246094 -15.635999679565426 L 59.23020935058594 -16.38400077819824 L 58.854000091552734 -16.600999832153317 L 57.04899978637695 -17.2859992980957 L 55.15599822998047 -17.673000335693356 L 53.22700119018555 -17.749999999999996 L 51.310001373291016 -17.517000198364254 L 49.45500183105469 -16.979999542236325 L 49.152000427246094 -16.836227416992184 L 48.198936462402344 -16.38400077819824 L 47.709999084472656 -16.15200042724609 L 46.12099838256836 -15.055000305175778 L 44.72800064086914 -13.717000007629391 L 43.56800079345703 -12.17399978637695 L 42.66999816894531 -10.463999748229979 L 42.058998107910156 -8.63199996948242 L 41.9874382019043 -8.19200038909912 L 41.749000549316406 -6.7259998321533185 L 41.749000549316406 -4.7940001487731925 L 42.058998107910156 -2.8880000114440914 L 42.66999816894531 -1.0559999942779537 L 43.22455596923828 1.1102230246251565e-16 L 43.56800079345703 0.6539999842643738 L 44.72800064086914 2.1970000267028804 L 46.12099838256836 3.5350000858306876 L 47.709999084472656 4.631999969482421 L 49.152000427246094 5.316226959228515 L 49.45500183105469 5.460000038146972 L 51.310001373291016 5.997000217437743 L 53.22700119018555 6.2300000190734846 L 55.15599822998047 6.152999877929686 L 57.04899978637695 5.765999794006347 L 58.854000091552734 5.080999851226806 L 60.527000427246094 4.116000175476073 L 62.02299880981445 2.8940000534057613 L 63.303001403808594 1.4490000009536743 L 64.21927642822266 1.1102230246251565e-16 L 64.33499908447266 -0.1829999983310698 L 65.09200286865234 -1.9600000381469722 L 65.53600311279297 -3.758056163787841 L 65.55500030517578 -3.8350000381469718 L 65.70999908447266 -5.760000228881835 L 65.55500030517578 -7.684999942779539 L 65.53600311279297 -7.76194381713867 M 41.801998138427734 -41.020000457763665 L 41.04499816894531 -42.79700088500976 L 40.01300048828125 -44.42900085449218 L 38.733001708984375 -45.8740005493164 L 37.23699951171875 -47.09600067138671 L 35.56399917602539 -48.061000823974595 L 33.75899887084961 -48.745998382568345 L 32.768001556396484 -48.94859695434569 L 31.865999221801758 -49.132999420166 L 29.937000274658203 -49.20999908447264 L 28.020000457763672 -48.97700119018553 L 26.165000915527344 -48.43999862670897 L 24.420000076293945 -47.61199951171874 L 22.83099937438965 -46.51499938964843 L 21.437999725341797 -45.17699813842773 L 20.277999877929688 -43.6339988708496 L 19.3799991607666 -41.923999786376946 L 18.768999099731445 -40.09199905395507 L 18.458999633789062 -38.1860008239746 L 18.458999633789062 -36.25400161743163 L 18.768999099731445 -34.3479995727539 L 19.29595375061035 -32.76800155639648 L 19.3799991607666 -32.515998840332024 L 20.277999877929688 -30.805999755859368 L 21.437999725341797 -29.263000488281243 L 22.83099937438965 -27.92499923706054 L 24.420000076293945 -26.827999114990227 L 26.165000915527344 -25.999999999999993 L 28.020000457763672 -25.462999343872063 L 29.937000274658203 -25.22999954223632 L 31.865999221801758 -25.30699920654296 L 32.768001556396484 -25.491401672363274 L 33.75899887084961 -25.694000244140618 L 35.56399917602539 -26.378999710083 L 37.23699951171875 -27.34399986267089 L 38.733001708984375 -28.565999984741204 L 40.01300048828125 -30.010999679565423 L 41.04499816894531 -31.642999649047844 L 41.52425003051758 -32.76800155639648 L 41.801998138427734 -33.419998168945305 L 42.26499938964844 -35.294998168945305 L 42.41999816894531 -37.22000122070312 L 42.26499938964844 -39.145000457763665 L 41.81681442260742 -40.95999908447265 L 41.801998138427734 -41.020000457763665 M 36.579803466796875 -8.19200038909912 L 36.242000579833984 -9.560000419616697 L 35.48500061035156 -11.336999893188475 L 34.452999114990234 -12.968999862670895 L 33.17300033569336 -14.413999557495114 L 32.768001556396484 -14.744822502136227 L 31.677000045776367 -15.635999679565426 L 30.38020896911621 -16.38400077819824 L 30.003999710083008 -16.600999832153317 L 28.198999404907227 -17.2859992980957 L 26.305999755859375 -17.673000335693356 L 24.37700080871582 -17.749999999999996 L 22.459999084472656 -17.517000198364254 L 20.604999542236328 -16.979999542236325 L 19.34893798828125 -16.38400077819824 L 18.860000610351562 -16.15200042724609 L 17.270999908447266 -15.055000305175778 L 16.384000778198242 -14.203022003173825 L 15.878000259399414 -13.717000007629391 L 14.718000411987305 -12.17399978637695 L 13.819999694824219 -10.463999748229979 L 13.208999633789062 -8.63199996948242 L 13.137436866760254 -8.19200038909912 L 12.89900016784668 -6.7259998321533185 L 12.89900016784668 -4.7940001487731925 L 13.208999633789062 -2.8880000114440914 L 13.819999694824219 -1.0559999942779537 L 14.374554634094238 1.1102230246251565e-16 L 14.718000411987305 0.6539999842643738 L 15.878000259399414 2.1970000267028804 L 16.384000778198242 2.683021545410156 L 17.270999908447266 3.5350000858306876 L 18.860000610351562 4.631999969482421 L 20.604999542236328 5.460000038146972 L 22.459999084472656 5.997000217437743 L 24.37700080871582 6.2300000190734846 L 26.305999755859375 6.152999877929686 L 28.198999404907227 5.765999794006347 L 30.003999710083008 5.080999851226806 L 31.677000045776367 4.116000175476073 L 32.768001556396484 3.224822282791137 L 33.17300033569336 2.8940000534057613 L 34.452999114990234 1.4490000009536743 L 35.36927795410156 1.1102230246251565e-16 L 35.48500061035156 -0.1829999983310698 L 36.242000579833984 -1.9600000381469722 L 36.70500183105469 -3.8350000381469718 L 36.86000061035156 -5.760000228881835 L 36.70500183105469 -7.684999942779539 L 36.579803466796875 -8.19200038909912 M 6.3520002365112305 -53.43799972534178 L 6.400000095367432 -53.79999923706053 L 6.3520002365112305 -54.16199874877928 L 6.211999893188477 -54.499999999999986 L 5.989999771118164 -54.79000091552733 L 5.699999809265137 -55.01200103759764 L 5.361999988555908 -55.15200042724608 L 5 -55.20000076293944 L 4.638000011444092 -55.15200042724608 L 4.300000190734863 -55.01200103759764 L 4.010000228881836 -54.79000091552733 L 3.7880001068115234 -54.499999999999986 L 3.6480000019073486 -54.16199874877928 L 3.5999999046325684 -53.79999923706053 L 3.6480000019073486 -53.43799972534178 L 3.726698160171509 -53.2480010986328 L 3.7880001068115234 -53.09999847412108 L 4.010000228881836 -52.810001373291 L 4.300000190734863 -52.58800125122069 L 4.638000011444092 -52.44800186157225 L 5 -52.40000152587889 L 5.361999988555908 -52.44800186157225 L 5.699999809265137 -52.58800125122069 L 5.989999771118164 -52.810001373291 L 6.211999893188477 -53.09999847412108 L 6.273301601409912 -53.2480010986328 L 6.3520002365112305 -53.43799972534178 M 13.45300006866455 -32.89899826049804 L 12.17300033569336 -34.344001770019524 L 10.677000045776367 -35.56600189208984 L 9.003999710083008 -36.53099822998046 L 7.198999881744385 -37.21599960327148 L 5.306000232696533 -37.60300064086913 L 3.377000093460083 -37.680000305175774 L 1.4600000381469727 -37.4469985961914 L 0 -37.02434921264648 L -0.39500001072883606 -36.9099998474121 L -2.140000104904175 -36.08200073242187 L -3.7290000915527344 -34.985000610351555 L -5.122000217437744 -33.64699935913085 L -5.782816410064697 -32.76800155639648 L -6.2820000648498535 -32.10400009155273 L -7.179999828338623 -30.393999099731438 L -7.790999889373779 -28.562000274658196 L -8.10099983215332 -26.656000137329094 L -8.10099983215332 -24.724000930786126 L -7.790999889373779 -22.818000793457028 L -7.179999828338623 -20.986000061035153 L -6.2820000648498535 -19.275999069213864 L -5.122000217437744 -17.73299980163574 L -3.7290000915527344 -16.39500045776367 L -3.713066577911377 -16.38400077819824 L -2.140000104904175 -15.298000335693356 L -0.39500001072883606 -14.470000267028805 L 0 -14.355651855468746 L 1.4600000381469727 -13.932999610900875 L 3.377000093460083 -13.699999809265133 L 5.306000232696533 -13.77700042724609 L 7.198999881744385 -14.163999557495114 L 9.003999710083008 -14.848999977111813 L 10.677000045776367 -15.814000129699703 L 11.37480640411377 -16.38400077819824 L 12.17300033569336 -17.0359992980957 L 13.45300006866455 -18.48100090026855 L 14.484999656677246 -20.113000869750973 L 15.241999626159668 -21.889999389648434 L 15.704999923706055 -23.764999389648434 L 15.859999656677246 -25.69000053405761 L 15.704999923706055 -27.614999771118157 L 15.241999626159668 -29.489999771118157 L 14.484999656677246 -31.26700019836425 L 13.53583812713623 -32.76800155639648 L 13.45300006866455 -32.89899826049804 M 99.21199798583984 51.499999999999986 L 98.98999786376953 51.20999908447264 L 98.69999694824219 50.98799896240233 L 98.36199951171875 50.84799957275389 L 98.30400085449219 50.84030914306639 L 98 50.79999923706053 L 97.63800048828125 50.84799957275389 L 97.30000305175781 50.98799896240233 L 97.01000213623047 51.20999908447264 L 96.78800201416016 51.499999999999986 L 96.64800262451172 51.83800125122069 L 96.5999984741211 52.20000076293944 L 96.64800262451172 52.56200027465819 L 96.78800201416016 52.90000152587889 L 97.01000213623047 53.18999862670897 L 97.30000305175781 53.41199874877928 L 97.63800048828125 53.55199813842772 L 98 53.59999847412108 L 98.30400085449219 53.559692382812486 L 98.36199951171875 53.55199813842772 L 98.69999694824219 53.41199874877928 L 98.98999786376953 53.18999862670897 L 99.21199798583984 52.90000152587889 L 99.35199737548828 52.56200027465819 L 99.4000015258789 52.20000076293944 L 99.35199737548828 51.83800125122069 L 99.21199798583984 51.499999999999986 M 9.631999969482422 1.5499999523162837 L 8.971701622009277 1.1102230246251565e-16 L 8.875 -0.2269999980926512 L 7.8429999351501465 -1.8589999675750728 L 6.563000202178955 -3.30399990081787 L 5.066999912261963 -4.526000022888183 L 3.3940000534057617 -5.491000175476073 L 1.5889999866485596 -6.1760001182556135 L 0 -6.500851154327391 L -0.30399999022483826 -6.563000202178953 L -2.2330000400543213 -6.639999866485594 L -4.150000095367432 -6.407000064849852 L -6.005000114440918 -5.869999885559081 L -7.75 -5.04199981689453 L -9.33899974822998 -3.944999933242797 L -10.732000350952148 -2.607000112533569 L -11.892000198364258 -1.064000010490417 L -12.45075511932373 1.1102230246251565e-16 L -12.789999961853027 0.6460000276565552 L -13.401000022888184 2.477999925613403 L -13.711000442504883 4.383999824523925 L -13.711000442504883 6.315999984741209 L -13.401000022888184 8.22200012207031 L -12.789999961853027 10.05399990081787 L -11.892000198364258 11.763999938964842 L -10.732000350952148 13.307000160217282 L -9.33899974822998 14.645000457763668 L -7.75 15.741999626159664 L -6.3969926834106445 16.38400077819824 L -6.005000114440918 16.569999694824215 L -4.150000095367432 17.107000350952145 L -2.2330000400543213 17.340000152587887 L -0.30399999022483826 17.263000488281246 L 0 17.200851440429684 L 1.5889999866485596 16.87599945068359 L 2.8854379653930664 16.38400077819824 L 3.3940000534057617 16.190999984741207 L 5.066999912261963 15.225999832153317 L 6.563000202178955 14.003999710083004 L 7.8429999351501465 12.559000015258786 L 8.875 10.927000045776365 L 9.631999969482422 9.149999618530272 L 10.095000267028809 7.27500009536743 L 10.25 5.3499999046325675 L 10.095000267028809 3.4249999523162833 L 9.631999969482422 1.5499999523162837 M 0.06400000303983688 32.58900070190429 L -1.982591997881254e-15 32.47167587280273 L -0.9610000252723694 30.70999908447265 L -2.24399995803833 28.99699974060058 L -3.756999969482422 27.48399925231933 L -5.46999979019165 26.20100021362304 L -7.348999977111816 25.176000595092766 L -9.354000091552734 24.427999496459954 L -11.444999694824219 23.972999572753903 L -13.579999923706055 23.819999694824215 L -15.71500015258789 23.972999572753903 L -16.384000778198242 24.118574142456048 L -17.805999755859375 24.427999496459954 L -19.81100082397461 25.176000595092766 L -21.690000534057617 26.20100021362304 L -23.402999877929688 27.48399925231933 L -24.916000366210938 28.99699974060058 L -26.198999404907227 30.70999908447265 L -27.224000930786133 32.58900070190429 L -27.29077911376953 32.76800155639648 L -27.972000122070312 34.594001770019524 L -28.427000045776367 36.68500137329101 L -28.579999923706055 38.81999969482421 L -28.427000045776367 40.95500183105468 L -27.972000122070312 43.046001434326165 L -27.224000930786133 45.05099868774413 L -26.198999404907227 46.930000305175774 L -24.916000366210938 48.64300155639647 L -23.402999877929688 50.155998229980455 L -21.690000534057617 51.438999176025376 L -19.81100082397461 52.46400070190428 L -17.805999755859375 53.212001800537095 L -16.384000778198242 53.521427154541 L -15.71500015258789 53.66699981689452 L -13.579999923706055 53.819999694824205 L -11.444999694824219 53.66699981689452 L -9.354000091552734 53.212001800537095 L -7.348999977111816 52.46400070190428 L -5.46999979019165 51.438999176025376 L -3.756999969482422 50.155998229980455 L -2.24399995803833 48.64300155639647 L -0.9610000252723694 46.930000305175774 L 0 45.168323516845696 L 0.06400000303983688 45.05099868774413 L 0.8119999766349792 43.046001434326165 L 1.2669999599456787 40.95500183105468 L 1.4199999570846558 38.81999969482421 L 1.2669999599456787 36.68500137329101 L 0.8119999766349792 34.594001770019524 L 0.13077905774116516 32.76800155639648 L 0.06400000303983688 32.58900070190429 M 5.989999771118164 53.18999862670897 L 6.211999893188477 52.90000152587889 L 6.3520002365112305 52.56200027465819 L 6.400000095367432 52.20000076293944 L 6.3520002365112305 51.83800125122069 L 6.211999893188477 51.499999999999986 L 5.989999771118164 51.20999908447264 L 5.699999809265137 50.98799896240233 L 5.361999988555908 50.84799957275389 L 5 50.79999923706053 L 4.638000011444092 50.84799957275389 L 4.300000190734863 50.98799896240233 L 4.0960001945495605 51.144165039062486 L 4.010000228881836 51.20999908447264 L 3.7880001068115234 51.499999999999986 L 3.6480000019073486 51.83800125122069 L 3.5999999046325684 52.20000076293944 L 3.6480000019073486 52.56200027465819 L 3.7880001068115234 52.90000152587889 L 4.010000228881836 53.18999862670897 L 4.085765838623047 53.2480010986328 L 4.300000190734863 53.41199874877928 L 4.638000011444092 53.55199813842772 L 5 53.59999847412108 L 5.361999988555908 53.55199813842772 L 5.699999809265137 53.41199874877928 L 5.914234161376953 53.2480010986328 L 5.989999771118164 53.18999862670897 M -46.29800033569336 -29.430000305175774 L -47.05500030517578 -31.207000732421868 L -48.0421028137207 -32.76800155639648 L -48.08700180053711 -32.83900070190429 L -49.152000427246094 -34.04128646850585 L -49.367000579833984 -34.28400039672851 L -50.862998962402344 -35.50600051879882 L -52.5359992980957 -36.47100067138671 L -54.340999603271484 -37.15599822998046 L -56.23400115966797 -37.54299926757812 L -58.16299819946289 -37.61999893188476 L -60.08000183105469 -37.38700103759765 L -61.935001373291016 -36.84999847412109 L -63.68000030517578 -36.02199935913085 L -65.26899719238281 -34.92499923706054 L -65.53600311279297 -34.66854095458984 L -66.66200256347656 -33.5870018005371 L -67.2777099609375 -32.76800155639648 L -67.8219985961914 -32.04399871826171 L -68.72000122070312 -30.333999633789055 L -69.33100128173828 -28.502000808715813 L -69.64099884033203 -26.59600067138671 L -69.64099884033203 -24.66399955749511 L -69.6266860961914 -24.57600021362304 L -69.33100128173828 -22.757999420166012 L -68.72000122070312 -20.92600059509277 L -67.8219985961914 -19.21599960327148 L -66.66200256347656 -17.673000335693356 L -65.53600311279297 -16.591457366943356 L -65.32001495361328 -16.38400077819824 L -65.26899719238281 -16.334999084472653 L -63.68000030517578 -15.237999916076657 L -61.935001373291016 -14.409999847412106 L -60.08000183105469 -13.873000144958493 L -58.16299819946289 -13.64000034332275 L -56.23400115966797 -13.717000007629391 L -54.340999603271484 -14.10400009155273 L -52.5359992980957 -14.788999557495114 L -50.862998962402344 -15.753999710083004 L -50.091739654541016 -16.38400077819824 L -49.367000579833984 -16.975999832153317 L -49.152000427246094 -17.218715667724606 L -48.08700180053711 -18.420999526977536 L -47.05500030517578 -20.052999496459957 L -46.29800033569336 -21.82999992370605 L -45.834999084472656 -23.70499992370605 L -45.76486587524414 -24.57600021362304 L -45.68000030517578 -25.629999160766594 L -45.834999084472656 -27.555000305175774 L -46.29800033569336 -29.430000305175774 M -38.66899871826172 -23.57500076293945 L -40.0620002746582 -22.236999511718746 L -41.22200012207031 -20.69400024414062 L -42.119998931884766 -18.983999252319332 L -42.73099899291992 -17.15200042724609 L -42.85591125488281 -16.38400077819824 L -43.04100036621094 -15.246000289916989 L -43.04100036621094 -13.314000129699703 L -42.73099899291992 -11.407999992370604 L -42.119998931884766 -9.576000213623045 L -41.22200012207031 -7.866000175476072 L -40.0620002746582 -6.322999954223631 L -38.66899871826172 -4.985000133514403 L -37.08000183105469 -3.888000011444091 L -35.334999084472656 -3.05999994277954 L -33.47999954223633 -2.523000001907348 L -32.768001556396484 -2.436460733413696 L -31.562999725341797 -2.289999961853027 L -29.634000778198242 -2.3670001029968257 L -27.740999221801758 -2.7539999485015865 L -25.93600082397461 -3.438999891281127 L -24.26300048828125 -4.403999805450439 L -22.767000198364258 -5.625999927520751 L -21.48699951171875 -7.071000099182127 L -20.454999923706055 -8.703000068664549 L -19.697999954223633 -10.479999542236326 L -19.235000610351562 -12.354999542236325 L -19.079999923706055 -14.279999732971188 L -19.235000610351562 -16.20499992370605 L -19.27920150756836 -16.38400077819824 L -19.697999954223633 -18.07999992370605 L -20.454999923706055 -19.857000350952145 L -21.48699951171875 -21.489000320434567 L -22.767000198364258 -22.934000015258786 L -24.26300048828125 -24.156000137329094 L -25.93600082397461 -25.121000289916985 L -27.740999221801758 -25.805999755859368 L -29.634000778198242 -26.193000793457024 L -31.562999725341797 -26.270000457763665 L -32.768001556396484 -26.12353897094726 L -33.47999954223633 -26.037000656127923 L -35.334999084472656 -25.499999999999993 L -37.08000183105469 -24.67200088500976 L -37.21905517578125 -24.57600021362304 L -38.66899871826172 -23.57500076293945 M -98 -52.40000152587889 L -97.63800048828125 -52.44800186157225 L -97.30000305175781 -52.58800125122069 L -97.01000213623047 -52.810001373291 L -96.78800201416016 -53.09999847412108 L -96.64800262451172 -53.43799972534178 L -96.5999984741211 -53.79999923706053 L -96.64800262451172 -54.16199874877928 L -96.78800201416016 -54.499999999999986 L -97.01000213623047 -54.79000091552733 L -97.30000305175781 -55.01200103759764 L -97.63800048828125 -55.15200042724608 L -98 -55.20000076293944 L -98.30400085449219 -55.15969085693358 L -98.36199951171875 -55.15200042724608 L -98.69999694824219 -55.01200103759764 L -98.98999786376953 -54.79000091552733 L -99.21199798583984 -54.499999999999986 L -99.35199737548828 -54.16199874877928 L -99.4000015258789 -53.79999923706053 L -99.35199737548828 -53.43799972534178 L -99.21199798583984 -53.09999847412108 L -98.98999786376953 -52.810001373291 L -98.69999694824219 -52.58800125122069 L -98.36199951171875 -52.44800186157225 L -98.30400085449219 -52.440307617187486 L -98 -52.40000152587889 M -75.39299774169922 -29.54999923706054 L -76.1500015258789 -31.326999664306634 L -77.06121826171875 -32.76800155639648 L -77.18199920654297 -32.958999633789055 L -78.46199798583984 -34.403999328613274 L -79.95800018310547 -35.62599945068359 L -81.63099670410156 -36.59099960327148 L -81.91999816894531 -36.70067596435546 L -83.43599700927734 -37.27600097656249 L -85.3290023803711 -37.66299819946288 L -87.25800323486328 -37.74000167846679 L -89.17500305175781 -37.506999969482415 L -91.02999877929688 -36.97000122070312 L -92.7750015258789 -36.14199829101562 L -94.36399841308594 -35.044998168945305 L -95.75700378417969 -33.70700073242187 L -96.46292114257812 -32.76800155639648 L -96.91699981689453 -32.16400146484374 L -97.81500244140625 -30.454000473022454 L -98.30400085449219 -28.987800598144524 L -98.4260025024414 -28.62199974060058 L -98.73600006103516 -26.715999603271477 L -98.73600006103516 -24.78400039672851 L -98.4260025024414 -22.87800025939941 L -98.30400085449219 -22.512199401855465 L -97.81500244140625 -21.045999526977536 L -96.91699981689453 -19.33600044250488 L -95.75700378417969 -17.79299926757812 L -94.36399841308594 -16.45499992370605 L -94.26115417480469 -16.38400077819824 L -92.7750015258789 -15.357999801635739 L -91.02999877929688 -14.529999732971188 L -89.17500305175781 -13.993000030517575 L -87.25800323486328 -13.760000228881832 L -85.3290023803711 -13.836999893188473 L -83.43599700927734 -14.223999977111813 L -81.63099670410156 -14.909000396728512 L -79.95800018310547 -15.873999595642086 L -79.33364868164062 -16.38400077819824 L -78.46199798583984 -17.096000671386715 L -77.18199920654297 -18.541000366210934 L -76.1500015258789 -20.173000335693356 L -75.39299774169922 -21.95000076293945 L -74.93000030517578 -23.82500076293945 L -74.8695297241211 -24.57600021362304 L -74.7750015258789 -25.749999999999993 L -74.93000030517578 -27.67499923706054 L -75.39299774169922 -29.54999923706054 M -96.78800201416016 51.499999999999986 L -97.01000213623047 51.20999908447264 L -97.30000305175781 50.98799896240233 L -97.63800048828125 50.84799957275389 L -98 50.79999923706053 L -98.30400085449219 50.84030914306639 L -98.36199951171875 50.84799957275389 L -98.69999694824219 50.98799896240233 L -98.98999786376953 51.20999908447264 L -99.21199798583984 51.499999999999986 L -99.35199737548828 51.83800125122069 L -99.4000015258789 52.20000076293944 L -99.35199737548828 52.56200027465819 L -99.21199798583984 52.90000152587889 L -98.98999786376953 53.18999862670897 L -98.69999694824219 53.41199874877928 L -98.36199951171875 53.55199813842772 L -98.30400085449219 53.559692382812486 L -98 53.59999847412108 L -97.63800048828125 53.55199813842772 L -97.30000305175781 53.41199874877928 L -97.01000213623047 53.18999862670897 L -96.78800201416016 52.90000152587889 L -96.64800262451172 52.56200027465819 L -96.5999984741211 52.20000076293944 L -96.64800262451172 51.83800125122069 L -96.78800201416016 51.499999999999986 M -32.768001556396484 -60.95000076293944 L -49.152000427246094 -60.95000076293944 L -59.54999923706055 -60.95000076293944 L -59.54999923706055 -49.15200042724608 L -59.54999923706055 -45.6500015258789 L -54.1031379699707 -45.6500015258789 L -49.733882904052734 -45.6500015258789 L -49.152000427246094 -45.6500015258789 L -32.768001556396484 -45.6500015258789 L -28.950000762939453 -45.6500015258789 L -28.950000762939453 -60.95000076293944 L -32.768001556396484 -60.95000076293944 M -65.53600311279297 -60.95000076293944 L -81.91999816894531 -60.95000076293944 L -92.55000305175781 -60.95000076293944 L -92.55000305175781 -49.15200042724608 L -92.55000305175781 -45.6500015258789 L -86.7784652709961 -45.6500015258789 L -83.32306671142578 -45.6500015258789 L -81.91999816894531 -45.6500015258789 L -65.53600311279297 -45.6500015258789 L -61.95000076293945 -45.6500015258789 L -61.95000076293945 -49.15200042724608 L -61.95000076293945 -60.95000076293944 L -65.53600311279297 -60.95000076293944 z"
     fill="none"
     stroke="rgb(255,0,0)"
     stroke-width="0.001mm"
     id="path6"
     style="stroke-width:0.01;stroke-miterlimit:4;stroke-dasharray:none;stroke:#000000;stroke-opacity:1" />
  <metadata
     id="metadata829">
    <rdf:RDF>
      <cc:Work
         rdf:about="">
        <dc:title>svgOutput</dc:title>
      </cc:Work>
    </rdf:RDF>
  </metadata>
</svg>
